<svg xmlns="http://www.w3.org/2000/svg" viewBox="0 0 1200 630" role="img" aria-label="The Bash social card">
  <defs>
    <linearGradient id="bg" x1="0" x2="1" y1="0" y2="1">
      <stop offset="0%" stop-color="#081018" />
      <stop offset="60%" stop-color="#0b1220" />
      <stop offset="100%" stop-color="#111b2a" />
    </linearGradient>
    <linearGradient id="line" x1="0" x2="1" y1="0" y2="0">
      <stop offset="0%" stop-color="#39d353" />
      <stop offset="100%" stop-color="#58a6ff" />
    </linearGradient>
    <filter id="soft" x="-20%" y="-20%" width="140%" height="140%">
      <feGaussianBlur stdDeviation="12" />
    </filter>
  </defs>
  <rect width="1200" height="630" fill="url(#bg)" />
  <g opacity=".18">
    <path d="M0 110h1200M0 170h1200M0 230h1200M0 290h1200M0 350h1200M0 410h1200M0 470h1200M0 530h1200" stroke="#39d353" />
    <path d="M120 0v630M240 0v630M360 0v630M480 0v630M600 0v630M720 0v630M840 0v630M960 0v630M1080 0v630" stroke="#39d353" />
  </g>
  <circle cx="950" cy="110" r="130" fill="#39d353" opacity=".12" filter="url(#soft)" />
  <circle cx="1030" cy="420" r="160" fill="#58a6ff" opacity=".14" filter="url(#soft)" />
  <rect x="70" y="70" width="1060" height="490" rx="28" fill="#0d141e" fill-opacity=".78" stroke="#1e2a35" stroke-width="2" />
  <rect x="70" y="70" width="1060" height="54" rx="28" fill="#111a26" />
  <circle cx="112" cy="97" r="7" fill="#ff5f56" />
  <circle cx="138" cy="97" r="7" fill="#ffbd2e" />
  <circle cx="164" cy="97" r="7" fill="#27c93f" />
  <text x="214" y="103" fill="#7a8a9e" font-family="'JetBrains Mono', monospace" font-size="22">/var/www/thebash/digest</text>
  <text x="116" y="205" fill="#39d353" font-family="'JetBrains Mono', monospace" font-size="26">$ the-bash --today --signal</text>
  <text x="116" y="292" fill="#e6edf3" font-family="'JetBrains Mono', monospace" font-size="92" font-weight="700">The Bash</text>
  <text x="116" y="352" fill="#58a6ff" font-family="'JetBrains Mono', monospace" font-size="36">AI and developer news for builders</text>
  <text x="116" y="432" fill="#7a8a9e" font-family="'JetBrains Mono', monospace" font-size="27">stdout // top stories</text>
  <text x="458" y="432" fill="#7a8a9e" font-family="'JetBrains Mono', monospace" font-size="27">stderr // quick hits</text>
  <text x="780" y="432" fill="#7a8a9e" font-family="'JetBrains Mono', monospace" font-size="27">crontab -l // trend watch</text>
  <rect x="116" y="465" width="214" height="18" rx="9" fill="#39d353" />
  <rect x="116" y="500" width="312" height="18" rx="9" fill="#1e2a35" />
  <rect x="458" y="465" width="188" height="18" rx="9" fill="#58a6ff" />
  <rect x="458" y="500" width="228" height="18" rx="9" fill="#1e2a35" />
  <rect x="780" y="465" width="178" height="18" rx="9" fill="url(#line)" />
  <rect x="780" y="500" width="204" height="18" rx="9" fill="#1e2a35" />
</svg>
